<svg width="current" height="current" viewBox="0 0 32 32" fill="current" xmlns="http://www.w3.org/2000/svg">
<g clip-path="url(#clip0)">
<path d="M24.5417 6H7.45833C6.65417 6 6 6.65417 6 7.45833V9.54167C6 10.3458 6.65417 11 7.45833 11H24.5417C25.3458 11 26 10.3458 26 9.54167V7.45833C26 6.65417 25.3458 6 24.5417 6Z" fill="current"/>
<path d="M7.45833 25.9983H13.7083C14.5125 25.9983 15.1667 25.3441 15.1667 24.54V14.1234C15.1667 13.3192 14.5125 12.665 13.7083 12.665H7.45833C6.65417 12.665 6 13.3192 6 14.1234V24.54C6 25.3441 6.65417 25.9983 7.45833 25.9983Z" fill="current"/>
<path d="M24.5417 12.665H18.2917C17.4875 12.665 16.8334 13.3192 16.8334 14.1234V17.04C16.8334 17.8442 17.4875 18.4984 18.2917 18.4984H24.5417C25.3459 18.4984 26 17.8442 26 17.04V14.1234C26 13.3192 25.3459 12.665 24.5417 12.665Z" fill="current"/>
<path d="M24.5417 20.165H18.2917C17.4875 20.165 16.8334 20.8192 16.8334 21.6234V24.54C16.8334 25.3441 17.4875 25.9983 18.2917 25.9983H24.5417C25.3459 25.9983 26 25.3441 26 24.54V21.6234C26 20.8192 25.3459 20.165 24.5417 20.165Z" fill="current"/>
</g>
<defs>
<clipPath id="clip0">
<rect width="20" height="20" fill="white" transform="translate(6 6)"/>
</clipPath>
</defs>
</svg>
