<svg width="10" height="12" viewBox="0 0 10 12" fill="none" xmlns="http://www.w3.org/2000/svg">
<path fill-rule="evenodd" clip-rule="evenodd" d="M4 0C3.44772 0 3 0.447715 3 1H1C0.447715 1 0 1.44772 0 2C0 2.55228 0.447715 3 1 3H9C9.55229 3 10 2.55228 10 2C10 1.44772 9.55228 1 9 1H7C7 0.447715 6.55228 0 6 0H4ZM1.1405 5.12403C1.0659 4.52718 1.53128 4 2.13278 4H7.86722C8.46872 4 8.9341 4.52718 8.8595 5.12403L8.1095 11.124C8.04694 11.6245 7.62154 12 7.11722 12H2.88278C2.37846 12 1.95306 11.6245 1.8905 11.124L1.1405 5.12403Z" fill="#8B93A2"/>
</svg>
