<svg width="current" height="current" viewBox="0 0 32 32" fill="none" xmlns="http://www.w3.org/2000/svg">
<path d="M26.4064 14.5689C26.4059 14.5684 26.4054 14.5679 26.4049 14.5674L17.4306 5.59351C17.0481 5.21082 16.5395 5 15.9985 5C15.4576 5 14.949 5.21065 14.5663 5.59334L5.59673 14.5627C5.59371 14.5658 5.59069 14.5689 5.58767 14.572C4.80215 15.362 4.80349 16.6439 5.59153 17.4319C5.95156 17.7921 6.42707 18.0007 6.93548 18.0226C6.95612 18.0246 6.97694 18.0256 6.99792 18.0256H7.3556V24.6298C7.3556 25.9367 8.41891 27 9.7261 27H13.2371C13.5929 27 13.8816 26.7115 13.8816 26.3555V21.1777C13.8816 20.5814 14.3667 20.0963 14.9631 20.0963H17.034C17.6303 20.0963 18.1154 20.5814 18.1154 21.1777V26.3555C18.1154 26.7115 18.4039 27 18.7599 27H22.271C23.5781 27 24.6415 25.9367 24.6415 24.6298V18.0256H24.9731C25.5139 18.0256 26.0225 17.8149 26.4054 17.4322C27.1942 16.6429 27.1946 15.3588 26.4064 14.5689Z" fill="current"/>
</svg>
