<svg width="32" height="32" viewBox="0 0 32 32" fill="none" xmlns="http://www.w3.org/2000/svg">
<rect width="32" height="32" transform="matrix(-1 0 0 1 32 0)" fill="transparent"/>
<path d="M5.54118 16C4.69001 16 3.9898 16.6928 4.09882 17.537C4.36786 19.6202 5.18056 21.606 6.46736 23.2889C8.06766 25.3819 10.3123 26.8899 12.8548 27.5805C15.3973 28.271 18.0964 28.1056 20.5356 27.1098C22.9748 26.114 25.0185 24.3432 26.3513 22.0705C27.6841 19.7979 28.2319 17.1498 27.9102 14.5349C27.5885 11.9199 26.4152 9.48357 24.5714 7.60171C22.7275 5.71984 20.3156 4.49709 17.7078 4.12214C15.6108 3.82065 13.481 4.0808 11.5315 4.86298C10.7416 5.17994 10.4787 6.12926 10.8942 6.87211V6.87211C11.3098 7.61497 12.2466 7.86603 13.0499 7.58446C14.3957 7.11267 15.8427 6.96803 17.2691 7.17312C19.2071 7.45175 20.9995 8.36043 22.3697 9.75891C23.74 11.1574 24.6119 12.968 24.8509 14.9112C25.09 16.8544 24.6829 18.8223 23.6924 20.5112C22.702 22.2001 21.1832 23.5161 19.3706 24.2561C17.5579 24.9961 15.5521 25.1191 13.6627 24.6059C11.7732 24.0927 10.1052 22.972 8.91593 21.4167C8.04059 20.2719 7.46046 18.9385 7.21519 17.5336C7.06881 16.6951 6.39234 16 5.54118 16V16Z" fill="current"/>
<defs>
<radialGradient id="paint0_angular" cx="0" cy="0" r="1" gradientUnits="userSpaceOnUse" gradientTransform="translate(16 16) rotate(-180) scale(12)">
<stop stop-color="#8B93A1"/>
<stop offset="0.828125" stop-color="#8B93A1" stop-opacity="0"/>
</radialGradient>
</defs>
</svg>
