<svg width="current" height="current" viewBox="0 0 32 32" fill="none" xmlns="http://www.w3.org/2000/svg">
<g clip-path="url(#clip0)">
<path d="M11.5967 16.7617H20.7373C21.1584 16.7617 21.499 16.4209 21.499 15.9999V6.80858C21.499 6.38765 21.1584 6.04686 20.7373 6.04686H18.4521V5.28515C18.4521 4.02514 17.427 3 16.167 3C14.907 3 13.8818 4.02514 13.8818 5.28515V6.04686H11.5967C11.1757 6.04686 10.835 6.38765 10.835 6.80858V15.9999C10.835 16.4209 11.1757 16.7617 11.5967 16.7617ZM15.4053 5.28515C15.4053 4.86481 15.7474 4.52343 16.167 4.52343C16.5865 4.52343 16.9287 4.86481 16.9287 5.28515V6.04686H15.4053V5.28515Z" fill="current"/>
<path d="M27.264 15.6057C27.1272 15.3781 26.8786 15.2383 26.6124 15.2383C25.2703 15.2383 24.039 15.9831 23.416 17.1719L21.0795 21.6312C20.6823 22.3869 19.9071 22.8555 19.0548 22.8555H13.8818C13.4609 22.8555 13.1201 22.5147 13.1201 22.0937C13.1201 21.6728 13.4609 21.332 13.8818 21.332H19.0546C19.3388 21.332 19.5977 21.1759 19.7302 20.9236C19.8621 20.6717 20.2606 19.9109 20.6032 19.2571C20.7111 19.0512 20.7036 18.8039 20.5831 18.6049C20.4625 18.4062 20.2469 18.2852 20.0144 18.2852H12.0966C11.079 18.2852 10.1238 18.6817 9.40377 19.4009L4.89894 23.9058C4.60139 24.2033 4.60139 24.6854 4.89894 24.9829L8.70752 28.7768C8.85629 28.9256 9.05128 29.0002 9.24608 29.0002C9.44087 29.0002 9.63586 28.9256 9.78463 28.7768L12.6738 25.9023H19.0546C21.0437 25.9023 22.8542 24.8074 23.7782 23.0451L27.2862 16.3541C27.4112 16.1182 27.4023 15.8342 27.264 15.6057Z" fill="current"/>
</g>
<defs>
<clipPath id="clip0">
<rect width="26" height="26" fill="white" transform="translate(3 3)"/>
</clipPath>
</defs>
</svg>
