<svg width="current" height="current" viewBox="0 0 32 32" fill="none" xmlns="http://www.w3.org/2000/svg">
<path d="M27.903 14.4959C27.746 13.2849 26.485 12.4559 25.278 12.908C24.826 13.079 24.282 12.8249 24.078 12.3689C23.834 11.825 23.535 11.3039 23.187 10.82C22.877 10.3889 22.936 9.82494 23.321 9.50695C23.781 9.12895 24.038 8.56996 24.026 7.97493C24.014 7.36991 23.729 6.81295 23.244 6.44493C22.446 5.84095 21.576 5.33793 20.657 4.95093C20.409 4.84691 20.149 4.79395 19.884 4.79395C18.926 4.79395 18.118 5.47495 17.962 6.41296C17.88 6.90595 17.413 7.24096 16.887 7.18396C16.303 7.12195 15.695 7.12195 15.112 7.18396C14.588 7.24096 14.119 6.90595 14.037 6.41296C13.881 5.47495 13.073 4.79395 12.115 4.79395C11.85 4.79395 11.59 4.84696 11.343 4.95093C10.423 5.33793 9.553 5.83991 8.755 6.44493C8.27102 6.81295 7.98602 7.36991 7.97402 7.97394C7.96202 8.56996 8.21903 9.12796 8.67902 9.50793C9.06503 9.82494 9.12203 10.3889 8.81303 10.8189C8.46503 11.3029 8.16503 11.8239 7.92105 12.3679C7.71705 12.8239 7.21305 13.0919 6.71003 12.9029C6.49005 12.8209 6.26102 12.7789 6.02903 12.7789C5.05305 12.7789 4.22303 13.5169 4.09605 14.4959C4.033 14.9919 4 15.4989 4 15.9999C4 16.5009 4.033 17.0079 4.09698 17.5039C4.25298 18.7139 5.51298 19.5429 6.72198 19.0919C7.17297 18.9209 7.71798 19.1749 7.92198 19.6309C8.16597 20.1749 8.46498 20.6959 8.81298 21.1799C9.12297 21.6109 9.064 22.1749 8.67897 22.4929C8.21898 22.8709 7.96197 23.4299 7.97397 24.0249C7.98597 24.6299 8.27097 25.1869 8.75598 25.5549C9.55398 26.1589 10.424 26.6619 11.343 27.0489C11.591 27.1529 11.851 27.2059 12.116 27.2059C13.074 27.2059 13.882 26.5249 14.038 25.5869C14.12 25.0939 14.588 24.7639 15.113 24.8159C15.696 24.8779 16.304 24.8779 16.888 24.8159C17.414 24.7629 17.881 25.0939 17.963 25.5869C18.119 26.5249 18.927 27.2049 19.885 27.2059C20.15 27.2059 20.41 27.1529 20.657 27.0489C21.576 26.6619 22.447 26.1599 23.244 25.5549C23.728 25.1869 24.014 24.6299 24.026 24.0259C24.038 23.4299 23.781 22.8719 23.321 22.4919C22.935 22.1749 22.878 21.6109 23.187 21.1809C23.535 20.6969 23.835 20.1759 24.079 19.6319C24.283 19.175 24.7879 18.908 25.29 19.097C25.51 19.18 25.739 19.222 25.971 19.222C26.947 19.222 27.777 18.484 27.904 17.505C27.967 17.0029 28 16.4979 28 15.9999C28 15.5019 27.967 14.9969 27.903 14.4959ZM16 19.9999C13.794 19.9999 12 18.2059 12 15.9999C12 13.7939 13.794 11.9999 16 11.9999C18.206 11.9999 20 13.7939 20 15.9999C20 18.2059 18.206 19.9999 16 19.9999Z" fill="current"/>
</svg>
