<svg width="current" height="current" viewBox="0 0 32 32" fill="none" xmlns="http://www.w3.org/2000/svg">
<g clip-path="url(#clip0)">
<path d="M16 13.686C18.2523 13.686 20.0781 11.8602 20.0781 9.60791C20.0781 7.35562 18.2523 5.52979 16 5.52979C13.7477 5.52979 11.9219 7.35562 11.9219 9.60791C11.9219 11.8602 13.7477 13.686 16 13.686Z" fill="current"/>
<path d="M24.25 13.686C25.6739 13.686 26.8281 12.5318 26.8281 11.1079C26.8281 9.68405 25.6739 8.52979 24.25 8.52979C22.8261 8.52979 21.6719 9.68405 21.6719 11.1079C21.6719 12.5318 22.8261 13.686 24.25 13.686Z" fill="current"/>
<path d="M7.75 13.686C9.17386 13.686 10.3281 12.5318 10.3281 11.1079C10.3281 9.68405 9.17386 8.52979 7.75 8.52979C6.32614 8.52979 5.17188 9.68405 5.17188 11.1079C5.17188 12.5318 6.32614 13.686 7.75 13.686Z" fill="current"/>
<path d="M10.2902 16.0011C9.27531 15.1697 8.35623 15.2797 7.18281 15.2797C5.42781 15.2797 4 16.6991 4 18.4433V23.5625C4 24.32 4.61828 24.936 5.37859 24.936C8.66106 24.936 8.26562 24.9953 8.26562 24.7944C8.26562 21.1669 7.83597 18.5067 10.2902 16.0011Z" fill="current"/>
<path d="M17.1161 15.2985C15.0665 15.1275 13.2851 15.3004 11.7485 16.5688C9.17703 18.6285 9.67189 21.4017 9.67189 24.7944C9.67189 25.692 10.4022 26.436 11.3135 26.436C21.2079 26.436 21.6017 26.7551 22.1885 25.4558C22.3809 25.0164 22.3281 25.156 22.3281 20.9525C22.3281 17.6138 19.4372 15.2985 17.1161 15.2985Z" fill="current"/>
<path d="M24.8172 15.2801C23.6373 15.2801 22.7233 15.1712 21.7098 16.0015C24.1457 18.4885 23.7344 20.9672 23.7344 24.7948C23.7344 24.997 23.4061 24.9363 26.5722 24.9363C27.3597 24.9363 28 24.2984 28 23.5141V18.4437C28 16.6995 26.5722 15.2801 24.8172 15.2801Z" fill="current"/>
</g>
<defs>
<clipPath id="clip0">
<rect width="24" height="24" fill="white" transform="translate(4 4)"/>
</clipPath>
</defs>
</svg>
