<svg width="32" height="32" viewBox="0 0 32 32" fill="none" xmlns="http://www.w3.org/2000/svg">
<path d="M15.9995 5C9.92521 5 5 9.92521 5 15.9995C5 22.0739 9.92521 27 15.9995 27C22.0739 27 27 22.0739 27 15.9995C27 9.92521 22.0739 5 15.9995 5ZM18.2894 22.0478C17.7232 22.2713 17.2725 22.4408 16.9345 22.5581C16.5974 22.6754 16.2053 22.7341 15.7593 22.7341C15.0739 22.7341 14.5403 22.5665 14.1604 22.2322C13.7804 21.8979 13.5914 21.4742 13.5914 20.9592C13.5914 20.759 13.6054 20.5541 13.6333 20.3455C13.6622 20.1369 13.7078 19.9023 13.7702 19.6387L14.4789 17.1356C14.5412 16.8954 14.5953 16.6672 14.6381 16.4549C14.6809 16.2407 14.7014 16.0442 14.7014 15.8654C14.7014 15.547 14.6353 15.3235 14.504 15.1978C14.3708 15.072 14.1203 15.0106 13.7469 15.0106C13.5644 15.0106 13.3763 15.0376 13.1835 15.0944C12.9926 15.1531 12.8269 15.2061 12.6909 15.2583L12.8781 14.4872C13.3418 14.2982 13.786 14.1362 14.2097 14.0021C14.6334 13.8661 15.0339 13.7991 15.411 13.7991C16.0917 13.7991 16.6169 13.9648 16.9866 14.2926C17.3545 14.6213 17.5398 15.0488 17.5398 15.574C17.5398 15.6829 17.5267 15.8748 17.5016 16.1485C17.4764 16.4232 17.429 16.6737 17.36 16.9037L16.6551 19.3994C16.5974 19.5996 16.5462 19.8287 16.4996 20.0848C16.454 20.3409 16.4316 20.5364 16.4316 20.6677C16.4316 20.9992 16.5052 21.2255 16.6542 21.3457C16.8013 21.4658 17.0593 21.5263 17.4243 21.5263C17.5966 21.5263 17.7893 21.4956 18.0072 21.436C18.2233 21.3764 18.3797 21.3233 18.4784 21.2777L18.2894 22.0478ZM18.1646 11.918C17.8359 12.2234 17.4401 12.3762 16.9773 12.3762C16.5154 12.3762 16.1169 12.2234 15.7854 11.918C15.4557 11.6126 15.289 11.241 15.289 10.8071C15.289 10.3741 15.4566 10.0016 15.7854 9.69333C16.1169 9.38417 16.5154 9.23052 16.9773 9.23052C17.4401 9.23052 17.8368 9.38417 18.1646 9.69333C18.4933 10.0016 18.6582 10.3741 18.6582 10.8071C18.6582 11.2419 18.4933 11.6126 18.1646 11.918Z" fill="current"/>
</svg>
