<svg width="32" height="32" viewBox="0 0 32 32" fill="none" xmlns="http://www.w3.org/2000/svg">
<path d="M21.1882 21.834C19.6523 21.834 18.3859 23.0735 18.3859 24.6363C18.3859 26.1722 19.6254 27.4387 21.1882 27.4387C22.7241 27.4387 23.9906 26.1992 23.9906 24.6363C23.9636 23.1004 22.7241 21.834 21.1882 21.834Z" fill="current"/>
<path d="M26.1194 8.46864C26.0655 8.46864 25.9846 8.4417 25.9038 8.4417H8.92804L8.65859 6.63634C8.49691 5.45073 7.47298 4.56152 6.26042 4.56152H4.07783C3.48502 4.56152 3 5.04655 3 5.63935C3 6.23215 3.48502 6.71718 4.07783 6.71718H6.26042C6.39515 6.71718 6.50294 6.82496 6.52988 6.95969L8.20051 18.3308C8.41608 19.7589 9.65558 20.8367 11.1106 20.8367H22.32C23.7212 20.8367 24.9338 19.8397 25.2302 18.4655L26.9816 9.70814C27.0894 9.14228 26.7122 8.57643 26.1194 8.46864Z" fill="current"/>
<path d="M14.3172 24.5016C14.2633 23.0196 13.0238 21.834 11.5418 21.834C9.97894 21.9148 8.79333 23.2082 8.84723 24.7441C8.90112 26.2261 10.1137 27.4117 11.5957 27.4117H11.6496C13.1855 27.3309 14.398 26.0375 14.3172 24.5016Z" fill="current"/>
</svg>
