<svg width="32" height="32" viewBox="0 0 32 32" fill="none" xmlns="http://www.w3.org/2000/svg">
<rect width="32" height="32" fill="none"/>
<g clip-path="url(#clip0)">
<path d="M19.9998 17.0003C19.4469 17.0003 18.9999 17.4484 18.9999 18.0002V22.0003C18.9999 22.5513 18.5519 23.0003 17.9998 23.0003H14.9998V8.00039C14.9998 7.14639 14.4558 6.3834 13.6379 6.09941L13.3418 6.00035H17.9998C18.5519 6.00035 18.9999 6.44932 18.9999 7.00046V10.0004C18.9999 10.5523 19.4469 11.0004 19.9998 11.0004C20.5528 11.0004 20.9998 10.5523 20.9998 10.0004V7.00046C20.9998 5.34648 19.6538 4.00049 17.9998 4.00049H7.24998C7.21189 4.00049 7.18003 4.01752 7.14304 4.02246C7.09489 4.01843 7.04893 4.00049 7.00004 4.00049C5.89702 4.00049 5 4.89733 5 6.00035V24.0002C5 24.8542 5.544 25.6172 6.36192 25.9012L12.38 27.9072C12.584 27.9702 12.7868 28.0003 13 28.0003C14.103 28.0003 14.9998 27.1032 14.9998 26.0002V25.0003H17.9998C19.6538 25.0003 20.9998 23.6543 20.9998 22.0003V18.0002C20.9998 17.4484 20.5528 17.0003 19.9998 17.0003Z" fill="current"/>
<path d="M28.7069 13.2932L24.7068 9.29327C24.421 9.00726 23.9908 8.9212 23.6169 9.07611C23.244 9.2312 22.9999 9.59612 22.9999 10.0002V13.0002H19C18.4479 13.0002 17.9999 13.4481 17.9999 14.0001C17.9999 14.5522 18.4479 15.0001 19 15.0001H22.9999V18C22.9999 18.4041 23.244 18.7691 23.6169 18.9241C23.9908 19.0791 24.421 18.993 24.7068 18.7072L28.7069 14.7071C29.0978 14.3162 29.0978 13.6841 28.7069 13.2932Z" fill="current"/>
</g>
<defs>
<clipPath id="clip0">
<rect width="24" height="24" fill="current" transform="translate(5 4)"/>
</clipPath>
</defs>
</svg>
