<svg width="32" height="32" viewBox="0 0 32 32" fill="none" xmlns="http://www.w3.org/2000/svg">
<path fill-rule="evenodd" clip-rule="evenodd" d="M11.6116 5.92292C11.648 5.40308 12.0804 5 12.6015 5H19.3647C19.8858 5 20.3182 5.40308 20.3546 5.92292L20.5404 8.57129H23.0664C24.1166 8.57129 24.988 9.38365 25.0615 10.4313L26.1439 25.8599C26.225 27.0167 25.3085 27.9999 24.1488 27.9999H8.35361C7.19393 27.9999 6.27736 27.0167 6.35852 25.8599L7.44091 10.4313C7.51441 9.38365 8.38576 8.57129 9.43601 8.57129H11.4258L11.6116 5.92292ZM18.6995 8.57129H13.3005L13.3616 7.6718C13.3872 7.29364 13.7015 7 14.0805 7H17.9195C18.2985 7 18.6128 7.29364 18.6384 7.6718L18.6995 8.57129ZM18.9639 15.2929C19.3544 14.9024 19.9876 14.9024 20.3781 15.2929C20.7686 15.6834 20.7686 16.3166 20.3781 16.7071L16.0911 20.9941C16.0394 21.0747 15.9751 21.1493 15.8985 21.2147C15.4786 21.5735 14.8474 21.5239 14.4887 21.104L12.2398 18.472C11.881 18.0521 11.9305 17.4209 12.3504 17.0622C12.7703 16.7034 13.4015 16.7529 13.7603 17.1728L15.2917 18.9651L18.9639 15.2929Z" fill="current"/>
</svg>
