<svg width="current" height="current" viewBox="0 0 32 32" fill="none" xmlns="http://www.w3.org/2000/svg">
<path d="M16 4.00098C9.37328 4.00098 4 9.3732 4 16.0004C4 22.6277 9.37275 27.9999 16 27.9999C22.6278 27.9999 28 22.6277 28 16.0004C28 9.3732 22.6278 4.00098 16 4.00098ZM16 7.58896C18.1927 7.58896 19.9696 9.36635 19.9696 11.558C19.9696 13.7503 18.1927 15.5271 16 15.5271C13.8083 15.5271 12.0315 13.7503 12.0315 11.558C12.0315 9.36635 13.8083 7.58896 16 7.58896ZM15.9974 24.8626C13.8104 24.8626 11.8074 24.0662 10.2625 22.7479C9.88615 22.4269 9.66898 21.9562 9.66898 21.4623C9.66898 19.2395 11.468 17.4605 13.6913 17.4605H18.3098C20.5336 17.4605 22.3257 19.2395 22.3257 21.4623C22.3257 21.9567 22.1096 22.4263 21.7328 22.7474C20.1884 24.0662 18.1848 24.8626 15.9974 24.8626Z" fill="current"/>
</svg>
