<svg width="32" height="32" viewBox="0 0 32 32" fill="none" xmlns="http://www.w3.org/2000/svg">
<path d="M24.3905 17.0928C23.5047 17.0928 22.7866 17.8109 22.7866 18.6966V22.7922H9.20764V18.6966C9.20764 17.8109 8.48956 17.0928 7.60382 17.0928C6.71808 17.0928 6 17.8109 6 18.6966V24.396C6 25.2817 6.71808 25.9998 7.60382 25.9998H24.3905C25.2762 25.9998 25.9943 25.2817 25.9943 24.396V18.6966C25.9943 17.8109 25.2762 17.0928 24.3905 17.0928Z" fill="#434B59"/>
<path d="M12.603 13.2661L14.3933 11.4758V17.4514C14.3933 18.3371 15.1114 19.0552 15.9971 19.0552C16.8828 19.0552 17.6009 18.3371 17.6009 17.4514V11.4757L19.3912 13.266C19.7043 13.5792 20.1148 13.7358 20.5253 13.7358C20.9358 13.7358 21.3462 13.5792 21.6593 13.266C22.2857 12.6397 22.2857 11.6243 21.6593 10.9979L17.1312 6.4698C16.5049 5.8434 15.4893 5.8434 14.863 6.4698L10.3349 10.998C9.70853 11.6243 9.70853 12.6397 10.3349 13.2661C10.9612 13.8924 11.9767 13.8924 12.603 13.2661Z" fill="#434B59"/>
</svg>
